<svg viewBox="0 0 24 24" xmlns="http://www.w3.org/2000/svg" xmlns:xlink="http://www.w3.org/1999/xlink" width="24.000000" height="24.000000" fill="none">
	<rect id="bag" width="24.000000" height="24.000000" x="0.000000" y="0.000000" fill="rgb(255,255,255)" fill-opacity="0" />
	<path id="Vector" d="M18 6L16 6C16 3.79 14.21 2 12 2C9.79 2 8 3.79 8 6L6 6C4.9 6 4 6.9 4 8L4 20C4 21.1 4.9 22 6 22L18 22C19.1 22 20 21.1 20 20L20 8C20 6.9 19.1 6 18 6ZM12 4C13.1 4 14 4.9 14 6L10 6C10 4.9 10.9 4 12 4ZM18 20L6 20L6 8L8 8L8 10C8 10.55 8.45 11 9 11C9.55 11 10 10.55 10 10L10 8L14 8L14 10C14 10.55 14.45 11 15 11C15.55 11 16 10.55 16 10L16 8L18 8L18 20Z" fill="rgb(32,32,32)" fill-rule="nonzero" />
</svg>
