<svg viewBox="0 0 24 24" xmlns="http://www.w3.org/2000/svg" xmlns:xlink="http://www.w3.org/1999/xlink" width="24.000000" height="24.000000" fill="none">
	<rect id="person" width="24.000000" height="24.000000" x="0.000000" y="0.000000" fill="rgb(255,255,255)" fill-opacity="0" />
	<path id="Vector" d="M16 8.5C16 10.71 14.21 12.5 12 12.5C9.79 12.5 8 10.71 8 8.5L8 5C8 4.17 8.67 3.5 9.5 3.5C10.02 3.5 10.48 3.77 10.75 4.17C11.02 3.77 11.48 3.5 12 3.5C12.52 3.5 12.98 3.77 13.25 4.17C13.52 3.77 13.98 3.5 14.5 3.5C15.33 3.5 16 4.17 16 5L16 8.5ZM14 8.5L14 6L10 6L10 8.5C10 9.6 10.9 10.5 12 10.5C13.1 10.5 14 9.6 14 8.5ZM18.39 15.06C16.71 14.2 14.53 13.5 12 13.5C9.47 13.5 7.29 14.2 5.61 15.06C4.61 15.57 4 16.6 4 17.72L4 20.5L20 20.5L20 17.72C20 16.6 19.39 15.57 18.39 15.06ZM6 18.5L6 17.72C6 17.34 6.2 17 6.52 16.84C7.71 16.23 9.63 15.5 12 15.5C14.37 15.5 16.29 16.23 17.48 16.84C17.8 17 18 17.34 18 17.72L18 18.5L6 18.5Z" fill="rgb(32,32,32)" fill-rule="evenodd" />
</svg>
