<svg viewBox="0 0 260 260" xmlns="http://www.w3.org/2000/svg" xmlns:xlink="http://www.w3.org/1999/xlink" width="260.000000" height="260.000000" fill="none" customFrame="#000000">
	<g id="Circle">
		<circle id="Ellipse 140" cx="130" cy="130" r="130" fill="rgb(116,140,112)" />
		<path id="Intersect" d="M96.7863 257.181C94.1979 256.454 91.6422 255.649 89.1218 254.769C90.0362 250.565 91.1154 246.516 92.3594 242.622C86.9691 236.285 83.0359 229.454 80.5596 222.131L80.5583 222.127C80.2613 221.249 79.9852 220.363 79.7302 219.47C78.6724 215.768 77.9678 211.897 77.6165 207.857C77.4851 206.346 77.3983 204.754 77.3559 203.08C77.3315 202.117 77.3193 200.82 77.3193 199.188L77.3194 199.176C77.3538 186.882 79.2972 175.82 83.1498 165.99C85.2109 160.731 87.8104 155.852 90.9484 151.354C91.4145 150.686 91.8922 150.027 92.3815 149.376L92.3838 149.373L92.3838 149.373C95.3187 145.472 98.6719 141.886 102.444 138.614C111.657 130.621 123.289 124.566 137.341 120.447C152.144 116.107 169.582 113.938 189.653 113.938L225.89 113.938L229.89 117.938L229.89 135.993L229.884 136.222C227.66 174.972 217.173 203.725 198.424 222.481C196.201 224.705 193.865 226.786 191.415 228.723L191.415 228.724C184.104 234.505 175.785 239.01 166.457 242.239C154.734 246.297 141.444 248.326 126.585 248.326L99.3749 248.326C99.2465 248.326 99.1192 248.32 98.9931 248.309C98.1675 251.177 97.4319 254.134 96.7863 257.181ZM221.89 135.878L221.89 121.938L189.653 121.938C170.347 121.938 153.66 124 139.591 128.124C126.656 131.915 116.021 137.427 107.686 144.657C104.15 147.724 101.033 151.098 98.3337 154.779L98.3336 154.779C95.1861 159.072 92.6076 163.782 90.5982 168.909C87.1117 177.805 85.3521 187.898 85.3194 199.188L85.3193 199.199C85.3194 200.758 85.3307 201.984 85.3533 202.877C85.3915 204.387 85.4692 205.816 85.5864 207.163C85.8934 210.693 86.5053 214.063 87.4224 217.273C87.5124 217.588 87.6056 217.902 87.7018 218.215C89.3842 223.694 92.0084 228.883 95.5742 233.784C98.2508 227.265 101.46 221.2 105.201 215.589C106.802 213.187 108.502 210.866 110.302 208.624L110.302 208.624C114.562 203.319 119.378 198.461 124.752 194.05C132.625 187.588 141.722 182.064 152.043 177.477L155.292 184.787C145.631 189.081 137.143 194.23 129.827 200.234C124.76 204.393 120.234 208.981 116.248 213.999C114.703 215.943 113.239 217.953 111.857 220.026C107.753 226.183 104.336 232.95 101.608 240.326L126.585 240.326C140.547 240.326 152.965 238.444 163.84 234.68C172.588 231.651 180.345 227.398 187.11 221.92C189.08 220.326 190.965 218.628 192.766 216.826C201.174 208.414 207.79 197.709 212.613 184.709C217.709 170.974 220.801 154.697 221.89 135.878Z" fill="rgb(255,255,255)" fill-rule="evenodd" />
	</g>
</svg>
