<svg viewBox="0 0 184 46" xmlns="http://www.w3.org/2000/svg" xmlns:xlink="http://www.w3.org/1999/xlink" width="184.000000" height="46.000000" fill="none" customFrame="#000000">
	<defs>
		<clipPath id="clipPath_1">
			<rect width="155.500000" height="21.000000" x="14.250000" y="5.000000" fill="rgb(255,255,255)" />
		</clipPath>
	</defs>
	<rect id="Logo" width="184.000000" height="46.000000" x="0.000000" y="0.000000" />
	<g id="Frame 26086802" customFrame="url(#clipPath_1)">
		<rect id="Frame 26086802" width="155.500000" height="21.000000" x="14.250000" y="5.000000" />
		<path id="modimal" d="M35.9486 12.6C36.9406 12.6 37.8153 12.808 38.5726 13.224C39.33 13.6293 39.922 14.2587 40.3486 15.112C40.786 15.9653 41.0046 17.064 41.0046 18.408L41.0046 26.12L36.2206 26.12L36.2206 19.144C36.2206 18.2267 36.082 17.4853 35.8046 16.92C35.5273 16.3547 34.978 16.072 34.1566 16.072C33.666 16.072 33.234 16.2 32.8606 16.456C32.4873 16.712 32.1993 17.0693 31.9966 17.528C31.794 17.976 31.6926 18.5147 31.6926 19.144L31.6926 26.12L27.2286 26.12L27.2286 19.144C27.2286 18.2267 27.074 17.4853 26.7646 16.92C26.466 16.3547 25.9326 16.072 25.1646 16.072C24.674 16.072 24.242 16.2 23.8686 16.456C23.4953 16.7013 23.2073 17.0533 23.0046 17.512C22.8126 17.96 22.7166 18.504 22.7166 19.144L22.7166 26.12L17.8846 26.12L17.8846 12.984L22.7166 12.984L22.7166 14.856C22.8446 14.5253 23.122 14.1893 23.5486 13.848C23.986 13.496 24.5246 13.2027 25.1646 12.968C25.8046 12.7227 26.482 12.6 27.1966 12.6C27.9753 12.6 28.626 12.7173 29.1486 12.952C29.6713 13.176 30.098 13.48 30.4286 13.864C30.77 14.248 31.042 14.664 31.2446 15.112C31.394 14.728 31.6873 14.344 32.1246 13.96C32.5726 13.5653 33.1273 13.24 33.7886 12.984C34.4606 12.728 35.1806 12.6 35.9486 12.6ZM53.7101 26.504C52.2701 26.504 50.9901 26.2107 49.8701 25.624C48.7608 25.0267 47.8861 24.2107 47.2461 23.176C46.6168 22.1307 46.3021 20.936 46.3021 19.592C46.3021 18.248 46.6168 17.0533 47.2461 16.008C47.8861 14.952 48.7608 14.12 49.8701 13.512C50.9901 12.904 52.2701 12.6 53.7101 12.6C55.1501 12.6 56.4195 12.904 57.5181 13.512C58.6168 14.12 59.4755 14.952 60.0941 16.008C60.7128 17.0533 61.0221 18.248 61.0221 19.592C61.0221 20.936 60.7128 22.1307 60.0941 23.176C59.4755 24.2107 58.6168 25.0267 57.5181 25.624C56.4195 26.2107 55.1501 26.504 53.7101 26.504ZM53.7101 22.504C54.2648 22.504 54.7448 22.3813 55.1501 22.136C55.5555 21.8907 55.8701 21.544 56.0941 21.096C56.3181 20.648 56.4301 20.1413 56.4301 19.576C56.4301 19 56.3181 18.488 56.0941 18.04C55.8701 17.592 55.5555 17.24 55.1501 16.984C54.7448 16.728 54.2648 16.6 53.7101 16.6C53.1555 16.6 52.6701 16.728 52.2541 16.984C51.8488 17.24 51.5288 17.592 51.2941 18.04C51.0701 18.488 50.9581 19 50.9581 19.576C50.9581 20.1413 51.0701 20.648 51.2941 21.096C51.5288 21.544 51.8488 21.8907 52.2541 22.136C52.6701 22.3813 53.1555 22.504 53.7101 22.504ZM72.3854 26.504C71.116 26.504 70.012 26.1947 69.0734 25.576C68.1347 24.9467 67.404 24.1093 66.8814 23.064C66.3694 22.008 66.1134 20.84 66.1134 19.56C66.1134 18.28 66.3694 17.1173 66.8814 16.072C67.404 15.016 68.1347 14.1733 69.0734 13.544C70.012 12.9147 71.116 12.6 72.3854 12.6C73.228 12.6 73.9747 12.7333 74.6254 13C75.276 13.256 75.804 13.5653 76.2094 13.928C76.6147 14.28 76.86 14.6053 76.9454 14.904L76.9454 4.104L81.8094 4.104L81.8094 26.12L76.9934 26.12L76.9934 23.992C76.7907 24.3867 76.46 24.7813 76.0014 25.176C75.5427 25.56 75.004 25.8747 74.3854 26.12C73.7667 26.376 73.1 26.504 72.3854 26.504ZM73.8734 22.68C74.46 22.68 74.9827 22.5467 75.4414 22.28C75.9107 22.0133 76.2787 21.6453 76.5454 21.176C76.812 20.696 76.9454 20.1573 76.9454 19.56C76.9454 18.9627 76.812 18.4293 76.5454 17.96C76.2787 17.48 75.9107 17.1067 75.4414 16.84C74.9827 16.5627 74.46 16.424 73.8734 16.424C73.308 16.424 72.796 16.5627 72.3374 16.84C71.8894 17.1067 71.532 17.48 71.2654 17.96C71.0094 18.4293 70.8814 18.9627 70.8814 19.56C70.8814 20.1573 71.0094 20.696 71.2654 21.176C71.532 21.6453 71.8894 22.0133 72.3374 22.28C72.796 22.5467 73.308 22.68 73.8734 22.68ZM87.9884 26.12L87.9884 12.984L92.8524 12.984L92.8524 26.12L87.9884 26.12ZM90.4844 10.28C89.7164 10.28 89.0657 10.0133 88.5324 9.48C87.999 8.936 87.7324 8.29067 87.7324 7.544C87.7324 6.79733 87.999 6.152 88.5324 5.608C89.0764 5.05333 89.727 4.776 90.4844 4.776C90.9857 4.776 91.4444 4.904 91.8604 5.16C92.2764 5.40533 92.6124 5.736 92.8684 6.152C93.1244 6.568 93.2524 7.032 93.2524 7.544C93.2524 8.29067 92.9804 8.936 92.4364 9.48C91.8924 10.0133 91.2417 10.28 90.4844 10.28ZM117.467 12.6C118.459 12.6 119.334 12.808 120.091 13.224C120.849 13.6293 121.441 14.2587 121.867 15.112C122.305 15.9653 122.523 17.064 122.523 18.408L122.523 26.12L117.739 26.12L117.739 19.144C117.739 18.2267 117.601 17.4853 117.323 16.92C117.046 16.3547 116.497 16.072 115.675 16.072C115.185 16.072 114.753 16.2 114.379 16.456C114.006 16.712 113.718 17.0693 113.515 17.528C113.313 17.976 113.211 18.5147 113.211 19.144L113.211 26.12L108.747 26.12L108.747 19.144C108.747 18.2267 108.593 17.4853 108.283 16.92C107.985 16.3547 107.451 16.072 106.683 16.072C106.193 16.072 105.761 16.2 105.387 16.456C105.014 16.7013 104.726 17.0533 104.523 17.512C104.331 17.96 104.235 18.504 104.235 19.144L104.235 26.12L99.4034 26.12L99.4034 12.984L104.235 12.984L104.235 14.856C104.363 14.5253 104.641 14.1893 105.067 13.848C105.505 13.496 106.043 13.2027 106.683 12.968C107.323 12.7227 108.001 12.6 108.715 12.6C109.494 12.6 110.145 12.7173 110.667 12.952C111.19 13.176 111.617 13.48 111.947 13.864C112.289 14.248 112.561 14.664 112.763 15.112C112.913 14.728 113.206 14.344 113.643 13.96C114.091 13.5653 114.646 13.24 115.307 12.984C115.979 12.728 116.699 12.6 117.467 12.6ZM138.733 26.12L138.733 23.992C138.637 24.2053 138.392 24.5147 137.997 24.92C137.613 25.3253 137.101 25.6933 136.461 26.024C135.821 26.344 135.074 26.504 134.221 26.504C132.941 26.504 131.821 26.1947 130.861 25.576C129.901 24.9467 129.154 24.1093 128.621 23.064C128.088 22.008 127.821 20.84 127.821 19.56C127.821 18.28 128.088 17.1173 128.621 16.072C129.154 15.016 129.901 14.1733 130.861 13.544C131.821 12.9147 132.941 12.6 134.221 12.6C135.042 12.6 135.762 12.7333 136.381 13C137 13.256 137.501 13.5653 137.885 13.928C138.269 14.28 138.536 14.6053 138.685 14.904L138.685 12.984L143.517 12.984L143.517 26.12L138.733 26.12ZM132.589 19.56C132.589 20.1573 132.728 20.696 133.005 21.176C133.282 21.6453 133.65 22.0133 134.109 22.28C134.578 22.5467 135.096 22.68 135.661 22.68C136.248 22.68 136.765 22.5467 137.213 22.28C137.661 22.0133 138.013 21.6453 138.269 21.176C138.536 20.696 138.669 20.1573 138.669 19.56C138.669 18.9627 138.536 18.4293 138.269 17.96C138.013 17.48 137.661 17.1067 137.213 16.84C136.765 16.5627 136.248 16.424 135.661 16.424C135.096 16.424 134.578 16.5627 134.109 16.84C133.65 17.1067 133.282 17.48 133.005 17.96C132.728 18.4293 132.589 18.9627 132.589 19.56ZM154.667 26.12L149.787 26.12L149.787 4.104L154.667 4.104L154.667 26.12Z" fill="rgb(64,64,64)" fill-rule="nonzero" />
		<path id="Subtract" d="M169.75 21C169.75 18.2386 167.511 16 164.75 16C161.989 16 159.75 18.2386 159.75 21C159.75 23.2158 161.191 25.0949 163.188 25.751C163.209 25.6706 163.232 25.5917 163.257 25.5143C163.046 25.2684 162.892 25.0029 162.796 24.718C162.786 24.6863 162.776 24.6543 162.767 24.622C162.726 24.4814 162.7 24.3343 162.686 24.1807C162.679 24.094 162.675 23.9836 162.675 23.8498L162.675 23.8495C162.677 23.1303 162.847 22.527 163.184 22.0396C163.31 21.8575 163.459 21.6916 163.631 21.5419C164.355 20.9138 165.467 20.5998 166.967 20.5998L168.36 20.5998L168.485 20.7248L168.485 21.4193L168.485 21.4264C168.4 22.9095 168 24.0091 167.284 24.7253C167.195 24.8136 167.103 24.8959 167.005 24.9723C166.377 25.4647 165.555 25.7109 164.541 25.7109L163.494 25.7109C163.483 25.7109 163.471 25.7093 163.46 25.7061C163.449 25.7447 163.438 25.7837 163.427 25.8231C163.848 25.9384 164.292 26 164.75 26C167.511 26 169.75 23.7614 169.75 21ZM163.547 25.4609L164.541 25.4609C165.519 25.4609 166.303 25.2215 166.892 24.7425C166.967 24.6818 167.038 24.6171 167.107 24.5486C167.777 23.8778 168.154 22.8335 168.235 21.4156L168.235 20.8498L166.967 20.8498C165.529 20.8498 164.472 21.1434 163.795 21.7307C163.649 21.8573 163.522 21.9971 163.412 22.1499C163.089 22.6019 162.927 23.1685 162.925 23.8498L162.925 23.8502C162.925 23.9766 162.929 24.0796 162.935 24.1591C162.947 24.2967 162.971 24.4281 163.007 24.5533C163.011 24.5675 163.015 24.5816 163.02 24.5957C163.09 24.8231 163.202 25.0376 163.356 25.2393C163.462 24.9714 163.591 24.7238 163.743 24.4966C163.794 24.4188 163.849 24.3431 163.907 24.2696C164.311 23.7526 164.853 23.3431 165.532 23.0412L165.633 23.2696C164.977 23.5615 164.458 23.958 164.076 24.4593C164.032 24.5166 163.991 24.5753 163.951 24.6353C163.786 24.8823 163.65 25.1557 163.542 25.4555C163.543 25.4573 163.545 25.4591 163.547 25.4609Z" fill="rgb(116,140,112)" fill-rule="evenodd" />
		<path id="Subtract" d="M164.75 16C167.511 16 169.75 18.2386 169.75 21C169.75 23.7614 167.511 26 164.75 26C164.292 26 163.848 25.9384 163.427 25.8231C163.438 25.7837 163.449 25.7447 163.46 25.7061C163.471 25.7093 163.483 25.7109 163.494 25.7109L164.541 25.7109Q166.062 25.7109 167.005 24.9723L167.006 24.9714Q167.152 24.8572 167.284 24.7253Q168.358 23.651 168.485 21.4264L168.485 21.4193L168.485 20.7248L168.36 20.5998L166.967 20.5998Q164.717 20.5998 163.631 21.5419Q163.372 21.7665 163.184 22.0395L163.184 22.0396L163.184 22.0396Q162.678 22.7708 162.675 23.8495L162.675 23.8498C162.675 23.9836 162.679 24.094 162.686 24.1807C162.7 24.3343 162.726 24.4814 162.767 24.622Q162.78 24.6699 162.796 24.717L162.796 24.7172L162.796 24.718C162.892 25.0029 163.046 25.2684 163.257 25.5143C163.232 25.5917 163.209 25.6706 163.188 25.751C161.191 25.0949 159.75 23.2158 159.75 21C159.75 18.2386 161.989 16 164.75 16ZM167.46 24.9028Q167.805 24.6625 168.109 24.3588Q168.459 24.0087 168.725 23.6033Q168.958 23.2474 169.127 22.8488C169.376 22.2606 169.5 21.6444 169.5 21C169.5 20.3556 169.376 19.7393 169.127 19.1512C168.886 18.5829 168.547 18.0796 168.109 17.6412Q167.759 17.2911 167.353 17.0252Q166.997 16.7917 166.599 16.6232Q166.208 16.4577 165.8 16.3656L165.8 16.3656Q165.288 16.25 164.75 16.25Q164.212 16.25 163.7 16.3656L163.7 16.3656L163.7 16.3656Q163.292 16.4577 162.901 16.6232Q162.503 16.7917 162.147 17.0252Q161.741 17.2911 161.391 17.6412Q161.041 17.9913 160.775 18.3966L160.775 18.3967Q160.542 18.7526 160.373 19.1512Q160.208 19.5425 160.116 19.9504L160.116 19.9504L160.116 19.9504Q160 20.4622 160 21Q160 21.463 160.087 21.9091L160.087 21.9097Q160.145 22.2115 160.244 22.5057Q160.351 22.8269 160.501 23.1265L160.501 23.1265Q160.681 23.4848 160.922 23.8122Q161.14 24.1097 161.399 24.3672L161.4 24.3678Q161.658 24.6245 161.955 24.8414Q162.284 25.0807 162.643 25.2585Q162.73 25.3017 162.818 25.3412Q162.667 25.1008 162.574 24.8394L162.573 24.8374Q162.566 24.8175 162.559 24.7976C162.548 24.7622 162.537 24.7266 162.526 24.6907C162.482 24.5347 162.452 24.3719 162.437 24.2024C162.429 24.1084 162.425 23.9909 162.425 23.8498L162.425 23.8495Q162.428 22.7265 162.946 21.9445Q162.962 21.9208 162.978 21.8974C163.116 21.698 163.279 21.5165 163.468 21.353Q164.624 20.3498 166.967 20.3498L168.464 20.3498L168.735 20.6213L168.735 21.4229L168.735 21.4372L168.735 21.4408Q168.602 23.7604 167.46 24.9021L167.46 24.9028ZM164.541 25.4609L163.547 25.4609C163.545 25.4591 163.543 25.4573 163.542 25.4555C163.65 25.1557 163.786 24.8823 163.951 24.6353C163.991 24.5753 164.032 24.5166 164.076 24.4593L164.076 24.4593Q164.648 23.7074 165.633 23.2696L165.532 23.0412Q164.513 23.494 163.907 24.2696C163.849 24.3431 163.794 24.4188 163.743 24.4966C163.591 24.7238 163.462 24.9714 163.356 25.2393C163.202 25.0376 163.09 24.8231 163.02 24.5957Q163.013 24.5746 163.007 24.5533C162.971 24.4281 162.947 24.2967 162.935 24.1591C162.929 24.0796 162.925 23.9766 162.925 23.8502L162.925 23.8498Q162.928 22.8278 163.412 22.1499C163.522 21.9971 163.649 21.8573 163.795 21.7307Q164.811 20.8498 166.967 20.8498L168.235 20.8498L168.235 21.4156Q168.113 23.5425 167.107 24.5486C167.038 24.6171 166.967 24.6818 166.892 24.7425Q166.009 25.4609 164.541 25.4609ZM163.913 25.2109L164.541 25.2109Q165.92 25.2109 166.734 24.5486C166.802 24.4932 166.868 24.4343 166.93 24.3719C167.555 23.7471 167.906 22.7593 167.985 21.4084L167.985 21.0998L166.967 21.0998Q164.904 21.0998 163.959 21.9196C163.828 22.0332 163.714 22.1585 163.616 22.2953Q163.178 22.9082 163.175 23.8502L163.175 23.8505C163.175 23.9696 163.178 24.0652 163.184 24.1374C163.195 24.2591 163.216 24.3748 163.247 24.4846C163.251 24.497 163.255 24.5093 163.258 24.5216C163.278 24.5839 163.301 24.6452 163.327 24.7055C163.391 24.5851 163.46 24.4693 163.535 24.358C163.59 24.2749 163.648 24.1941 163.71 24.1156C164.139 23.5658 164.713 23.1315 165.43 22.8127L165.659 22.7112L165.963 23.3965L165.735 23.4981Q164.809 23.9098 164.275 24.6108C164.234 24.6639 164.196 24.7183 164.159 24.774C164.067 24.9107 163.986 25.0563 163.913 25.2109Z" fill="rgb(255,255,255)" fill-rule="evenodd" />
	</g>
	<path id="women clothing" d="M56.6695 37.525L55.6245 40.6L54.7245 40.6L53.6095 36.495L54.5345 36.495L55.2795 39.65L56.3095 36.575L57.0295 36.575L58.0495 39.65L58.7995 36.495L59.7295 36.495L58.6145 40.6L57.7145 40.6L56.6695 37.525ZM63.4855 40.72C63.0622 40.72 62.6855 40.625 62.3555 40.435C62.0289 40.245 61.7722 39.9883 61.5855 39.665C61.3989 39.3383 61.3055 38.97 61.3055 38.56C61.3055 38.15 61.3989 37.78 61.5855 37.45C61.7722 37.12 62.0289 36.8583 62.3555 36.665C62.6855 36.4717 63.0622 36.375 63.4855 36.375C63.9055 36.375 64.2772 36.4717 64.6005 36.665C64.9272 36.8583 65.1822 37.12 65.3655 37.45C65.5489 37.78 65.6405 38.15 65.6405 38.56C65.6405 38.97 65.5489 39.3383 65.3655 39.665C65.1822 39.9883 64.9272 40.245 64.6005 40.435C64.2772 40.625 63.9055 40.72 63.4855 40.72ZM63.4855 39.975C63.7522 39.975 63.9839 39.9133 64.1805 39.79C64.3805 39.6667 64.5355 39.4983 64.6455 39.285C64.7555 39.0683 64.8105 38.825 64.8105 38.555C64.8105 38.285 64.7555 38.0417 64.6455 37.825C64.5355 37.6083 64.3805 37.4367 64.1805 37.31C63.9839 37.1833 63.7522 37.12 63.4855 37.12C63.2155 37.12 62.9805 37.1833 62.7805 37.31C62.5805 37.4367 62.4239 37.6083 62.3105 37.825C62.2005 38.0417 62.1455 38.285 62.1455 38.555C62.1455 38.825 62.2005 39.0683 62.3105 39.285C62.4239 39.4983 62.5805 39.6667 62.7805 39.79C62.9805 39.9133 63.2155 39.975 63.4855 39.975ZM72.5301 36.375C72.8334 36.375 73.0934 36.4417 73.3101 36.575C73.5267 36.705 73.6917 36.905 73.8051 37.175C73.9217 37.445 73.9801 37.79 73.9801 38.21L73.9801 40.6L73.1201 40.6L73.1201 38.385C73.1201 37.9417 73.0584 37.6083 72.9351 37.385C72.8117 37.1617 72.5867 37.05 72.2601 37.05C72.0867 37.05 71.9201 37.0983 71.7601 37.195C71.6034 37.2883 71.4734 37.4333 71.3701 37.63C71.2701 37.8267 71.2201 38.0783 71.2201 38.385L71.2201 40.6L70.4101 40.6L70.4101 38.385C70.4101 37.9417 70.3334 37.6083 70.1801 37.385C70.0267 37.1617 69.8117 37.05 69.5351 37.05C69.3584 37.05 69.1917 37.0967 69.0351 37.19C68.8817 37.28 68.7567 37.4233 68.6601 37.62C68.5634 37.8167 68.5151 38.0717 68.5151 38.385L68.5151 40.6L67.6501 40.6L67.6501 36.495L68.5151 36.495L68.5151 37.125C68.5517 37.0217 68.6301 36.9117 68.7501 36.795C68.8734 36.6783 69.0301 36.58 69.2201 36.5C69.4134 36.4167 69.6284 36.375 69.8651 36.375C70.1117 36.375 70.3184 36.425 70.4851 36.525C70.6517 36.625 70.7834 36.7483 70.8801 36.895C70.9767 37.0383 71.0434 37.1767 71.0801 37.31C71.1267 37.1667 71.2167 37.0233 71.3501 36.88C71.4834 36.7333 71.6517 36.6133 71.8551 36.52C72.0584 36.4233 72.2834 36.375 72.5301 36.375ZM76.7282 38.725C76.7315 38.9717 76.7849 39.1967 76.8882 39.4C76.9915 39.6033 77.1449 39.765 77.3482 39.885C77.5549 40.005 77.8082 40.065 78.1082 40.065C78.3615 40.065 78.5765 40.0283 78.7532 39.955C78.9332 39.8783 79.0799 39.7883 79.1932 39.685C79.3065 39.5783 79.3882 39.4833 79.4382 39.4L79.8632 39.925C79.7532 40.085 79.6182 40.225 79.4582 40.345C79.3015 40.465 79.1099 40.5567 78.8832 40.62C78.6565 40.6867 78.3799 40.72 78.0532 40.72C77.6132 40.72 77.2315 40.6267 76.9082 40.44C76.5882 40.25 76.3415 39.9883 76.1682 39.655C75.9949 39.3183 75.9082 38.9333 75.9082 38.5C75.9082 38.1 75.9899 37.74 76.1532 37.42C76.3165 37.0967 76.5532 36.8417 76.8632 36.655C77.1765 36.4683 77.5532 36.375 77.9932 36.375C78.3965 36.375 78.7465 36.46 79.0432 36.63C79.3432 36.7967 79.5749 37.0333 79.7382 37.34C79.9049 37.6467 79.9882 38.0133 79.9882 38.44C79.9882 38.4667 79.9865 38.515 79.9832 38.585C79.9799 38.6517 79.9765 38.6983 79.9732 38.725L76.7282 38.725ZM79.1582 38.07C79.1549 37.9333 79.1149 37.7833 79.0382 37.62C78.9649 37.4567 78.8449 37.3167 78.6782 37.2C78.5115 37.0833 78.2865 37.025 78.0032 37.025C77.7099 37.025 77.4732 37.0817 77.2932 37.195C77.1165 37.3083 76.9865 37.4467 76.9032 37.61C76.8199 37.77 76.7715 37.9233 76.7582 38.07L79.1582 38.07ZM84.2438 36.375C84.5138 36.375 84.7755 36.4317 85.0288 36.545C85.2855 36.6583 85.4955 36.8383 85.6588 37.085C85.8255 37.3283 85.9088 37.6467 85.9088 38.04L85.9088 40.6L85.0288 40.6L85.0288 38.21C85.0288 37.8033 84.9338 37.5083 84.7438 37.325C84.5538 37.1383 84.3088 37.045 84.0088 37.045C83.8122 37.045 83.6222 37.1017 83.4388 37.215C83.2588 37.325 83.1105 37.4783 82.9938 37.675C82.8772 37.8683 82.8188 38.0883 82.8188 38.335L82.8188 40.6L81.9488 40.6L81.9488 36.495L82.8188 36.495L82.8188 37.225C82.8488 37.1117 82.9305 36.9883 83.0638 36.855C83.1972 36.7217 83.3672 36.6083 83.5738 36.515C83.7805 36.4217 84.0038 36.375 84.2438 36.375ZM93.4717 40C93.7317 40 93.9417 39.9583 94.1017 39.875C94.2617 39.7917 94.3617 39.7317 94.4017 39.695L94.8267 40.32C94.7934 40.35 94.7134 40.3983 94.5867 40.465C94.4634 40.5283 94.3034 40.5867 94.1067 40.64C93.9134 40.6933 93.6934 40.72 93.4467 40.72C93.0701 40.72 92.72 40.6367 92.3967 40.47C92.0734 40.3 91.8117 40.0533 91.6117 39.73C91.4151 39.4067 91.3167 39.0117 91.3167 38.545C91.3167 38.075 91.4151 37.68 91.6117 37.36C91.8117 37.0367 92.0734 36.7917 92.3967 36.625C92.72 36.4583 93.0701 36.375 93.4467 36.375C93.69 36.375 93.9067 36.405 94.0967 36.465C94.2867 36.5217 94.4434 36.585 94.5667 36.655C94.69 36.725 94.7717 36.7783 94.8117 36.815L94.3817 37.44C94.3551 37.4133 94.3034 37.3733 94.2267 37.32C94.1534 37.2633 94.0534 37.2117 93.9267 37.165C93.8 37.1183 93.6484 37.095 93.4717 37.095C93.2584 37.095 93.05 37.1533 92.8467 37.27C92.6467 37.3833 92.4817 37.5483 92.3517 37.765C92.2217 37.9817 92.1567 38.2417 92.1567 38.545C92.1567 38.8483 92.2217 39.11 92.3517 39.33C92.4817 39.5467 92.6467 39.7133 92.8467 39.83C93.05 39.9433 93.2584 40 93.4717 40ZM97.5921 40.6L96.7171 40.6L96.7171 33.72L97.5921 33.72L97.5921 40.6ZM101.745 40.72C101.322 40.72 100.945 40.625 100.615 40.435C100.289 40.245 100.032 39.9883 99.8453 39.665C99.6586 39.3383 99.5653 38.97 99.5653 38.56C99.5653 38.15 99.6586 37.78 99.8453 37.45C100.032 37.12 100.289 36.8583 100.615 36.665C100.945 36.4717 101.322 36.375 101.745 36.375C102.165 36.375 102.537 36.4717 102.86 36.665C103.187 36.8583 103.442 37.12 103.625 37.45C103.809 37.78 103.9 38.15 103.9 38.56C103.9 38.97 103.809 39.3383 103.625 39.665C103.442 39.9883 103.187 40.245 102.86 40.435C102.537 40.625 102.165 40.72 101.745 40.72ZM101.745 39.975C102.012 39.975 102.244 39.9133 102.44 39.79C102.64 39.6667 102.795 39.4983 102.905 39.285C103.015 39.0683 103.07 38.825 103.07 38.555C103.07 38.285 103.015 38.0417 102.905 37.825C102.795 37.6083 102.64 37.4367 102.44 37.31C102.244 37.1833 102.012 37.12 101.745 37.12C101.475 37.12 101.24 37.1833 101.04 37.31C100.84 37.4367 100.684 37.6083 100.57 37.825C100.46 38.0417 100.405 38.285 100.405 38.555C100.405 38.825 100.46 39.0683 100.57 39.285C100.684 39.4983 100.84 39.6667 101.04 39.79C101.24 39.9133 101.475 39.975 101.745 39.975ZM105.515 36.495L106.32 36.495L106.32 34.81L107.185 34.81L107.185 36.495L108.24 36.495L108.24 37.24L107.185 37.24L107.185 39.27C107.185 39.51 107.227 39.6867 107.31 39.8C107.397 39.9133 107.512 39.97 107.655 39.97C107.782 39.97 107.88 39.9467 107.95 39.9C108.02 39.8533 108.062 39.8217 108.075 39.805L108.42 40.445C108.4 40.4617 108.347 40.4933 108.26 40.54C108.173 40.5867 108.062 40.6283 107.925 40.665C107.788 40.7017 107.628 40.72 107.445 40.72C107.125 40.72 106.857 40.6233 106.64 40.43C106.427 40.2333 106.32 39.9233 106.32 39.5L106.32 37.24L105.515 37.24L105.515 36.495ZM112.5 36.375C112.77 36.375 113.032 36.4317 113.285 36.545C113.542 36.6583 113.752 36.8383 113.915 37.085C114.082 37.3283 114.165 37.6467 114.165 38.04L114.165 40.6L113.285 40.6L113.285 38.21C113.285 37.8033 113.192 37.5083 113.005 37.325C112.822 37.1383 112.58 37.045 112.28 37.045C112.08 37.045 111.889 37.1017 111.705 37.215C111.522 37.325 111.37 37.4783 111.25 37.675C111.134 37.8683 111.075 38.0883 111.075 38.335L111.075 40.6L110.195 40.6L110.195 33.72L111.075 33.72L111.075 37.225C111.105 37.1117 111.185 36.9883 111.315 36.855C111.449 36.7217 111.619 36.6083 111.825 36.515C112.032 36.4217 112.257 36.375 112.5 36.375ZM116.436 40.6L116.436 36.495L117.306 36.495L117.306 40.6L116.436 40.6ZM116.881 35.09C116.725 35.09 116.59 35.035 116.476 34.925C116.366 34.8117 116.311 34.6767 116.311 34.52C116.311 34.3633 116.366 34.2283 116.476 34.115C116.59 34.0017 116.725 33.945 116.881 33.945C116.985 33.945 117.08 33.9717 117.166 34.025C117.256 34.0783 117.328 34.1483 117.381 34.235C117.435 34.3183 117.461 34.4133 117.461 34.52C117.461 34.6767 117.405 34.8117 117.291 34.925C117.178 35.035 117.041 35.09 116.881 35.09ZM121.931 36.375C122.201 36.375 122.463 36.4317 122.716 36.545C122.973 36.6583 123.183 36.8383 123.346 37.085C123.513 37.3283 123.596 37.6467 123.596 38.04L123.596 40.6L122.716 40.6L122.716 38.21C122.716 37.8033 122.621 37.5083 122.431 37.325C122.241 37.1383 121.996 37.045 121.696 37.045C121.5 37.045 121.31 37.1017 121.126 37.215C120.946 37.325 120.798 37.4783 120.681 37.675C120.565 37.8683 120.506 38.0883 120.506 38.335L120.506 40.6L119.636 40.6L119.636 36.495L120.506 36.495L120.506 37.225C120.536 37.1117 120.618 36.9883 120.751 36.855C120.885 36.7217 121.055 36.6083 121.261 36.515C121.468 36.4217 121.691 36.375 121.931 36.375ZM127.694 42.795C127.371 42.795 127.077 42.7617 126.814 42.695C126.554 42.6283 126.326 42.5333 126.129 42.41C125.936 42.29 125.781 42.1483 125.664 41.985L126.234 41.44C126.297 41.5267 126.382 41.6183 126.489 41.715C126.599 41.815 126.747 41.9 126.934 41.97C127.121 42.04 127.364 42.075 127.664 42.075C127.957 42.075 128.206 42.0117 128.409 41.885C128.612 41.7617 128.767 41.5933 128.874 41.38C128.981 41.1667 129.034 40.9267 129.034 40.66L129.034 40.525L129.884 40.525L129.884 40.715C129.884 41.1683 129.786 41.5483 129.589 41.855C129.396 42.165 129.134 42.3983 128.804 42.555C128.474 42.715 128.104 42.795 127.694 42.795ZM129.034 40.6L129.034 39.8C129.007 39.8833 128.929 39.9983 128.799 40.145C128.672 40.2917 128.497 40.425 128.274 40.545C128.054 40.6617 127.794 40.72 127.494 40.72C127.114 40.72 126.769 40.63 126.459 40.45C126.152 40.27 125.907 40.0183 125.724 39.695C125.544 39.3683 125.454 38.9867 125.454 38.55C125.454 38.1133 125.544 37.7333 125.724 37.41C125.907 37.0833 126.152 36.83 126.459 36.65C126.769 36.4667 127.114 36.375 127.494 36.375C127.791 36.375 128.047 36.4283 128.264 36.535C128.484 36.6417 128.659 36.765 128.789 36.905C128.922 37.045 129.001 37.165 129.024 37.265L129.024 36.495L129.884 36.495L129.884 40.6L129.034 40.6ZM126.314 38.55C126.314 38.8467 126.379 39.1033 126.509 39.32C126.639 39.5367 126.807 39.705 127.014 39.825C127.224 39.9417 127.447 40 127.684 40C127.937 40 128.164 39.94 128.364 39.82C128.564 39.7 128.722 39.5317 128.839 39.315C128.956 39.095 129.014 38.84 129.014 38.55C129.014 38.26 128.956 38.0067 128.839 37.79C128.722 37.57 128.564 37.4 128.364 37.28C128.164 37.1567 127.937 37.095 127.684 37.095C127.447 37.095 127.224 37.155 127.014 37.275C126.807 37.395 126.639 37.5633 126.509 37.78C126.379 37.9967 126.314 38.2533 126.314 38.55Z" fill="rgb(64,64,64)" fill-rule="nonzero" />
</svg>
